<svg width="72" height="17" viewBox="0 0 72 17" fill="none" xmlns="http://www.w3.org/2000/svg">
<path d="M12.254 3.284H7.766V16H4.752V3.284H0.242V0.599999H12.254V3.284ZM19.7435 15.054C19.3035 15.406 18.7021 15.7067 17.9395 15.956C17.1915 16.1907 16.3921 16.308 15.5415 16.308C13.7668 16.308 12.4688 15.7947 11.6475 14.768C10.8261 13.7267 10.4155 12.304 10.4155 10.5C10.4155 8.564 10.8775 7.112 11.8015 6.144C12.7255 5.176 14.0235 4.692 15.6955 4.692C16.2528 4.692 16.7955 4.76533 17.3235 4.912C17.8515 5.05867 18.3208 5.30067 18.7315 5.638C19.1421 5.97533 19.4721 6.43 19.7215 7.002C19.9708 7.574 20.0955 8.28533 20.0955 9.136C20.0955 9.444 20.0735 9.774 20.0295 10.126C20.0001 10.478 19.9488 10.8447 19.8755 11.226H13.2755C13.3195 12.15 13.5541 12.8467 13.9795 13.316C14.4195 13.7853 15.1235 14.02 16.0915 14.02C16.6928 14.02 17.2281 13.932 17.6975 13.756C18.1815 13.5653 18.5481 13.3747 18.7975 13.184L19.7435 15.054ZM15.6515 6.98C14.9035 6.98 14.3461 7.20733 13.9795 7.662C13.6275 8.102 13.4148 8.696 13.3415 9.444H17.4335C17.4921 8.652 17.3675 8.04333 17.0595 7.618C16.7661 7.19267 16.2968 6.98 15.6515 6.98ZM26.6693 12.964C26.6693 12.6707 26.5447 12.436 26.2953 12.26C26.046 12.084 25.738 11.9227 25.3713 11.776C25.0047 11.6293 24.6013 11.4827 24.1613 11.336C23.7213 11.1747 23.318 10.962 22.9513 10.698C22.5847 10.4193 22.2767 10.0747 22.0273 9.664C21.778 9.23867 21.6533 8.696 21.6533 8.036C21.6533 6.95067 21.976 6.122 22.6213 5.55C23.2667 4.978 24.198 4.692 25.4153 4.692C26.2513 4.692 27.0067 4.78 27.6813 4.956C28.356 5.132 28.884 5.33 29.2653 5.55L28.6273 7.618C28.29 7.486 27.8647 7.34667 27.3513 7.2C26.838 7.05333 26.3173 6.98 25.7893 6.98C24.9387 6.98 24.5133 7.31 24.5133 7.97C24.5133 8.234 24.638 8.44667 24.8873 8.608C25.1367 8.76933 25.4447 8.92333 25.8113 9.07C26.178 9.202 26.5813 9.34867 27.0213 9.51C27.4613 9.67133 27.8647 9.884 28.2313 10.148C28.598 10.3973 28.906 10.7273 29.1553 11.138C29.4047 11.5487 29.5293 12.0767 29.5293 12.722C29.5293 13.8367 29.17 14.7167 28.4513 15.362C27.7473 15.9927 26.684 16.308 25.2613 16.308C24.484 16.308 23.7507 16.2053 23.0613 16C22.3867 15.8093 21.8367 15.582 21.4113 15.318L22.2033 13.184C22.5407 13.3747 22.988 13.5653 23.5453 13.756C24.1027 13.932 24.6747 14.02 25.2613 14.02C25.6867 14.02 26.024 13.9393 26.2733 13.778C26.5373 13.6167 26.6693 13.3453 26.6693 12.964ZM30.2526 5H31.7706V2.932L34.6306 2.118V5H37.3146V7.42H34.6306V11.644C34.6306 12.4067 34.7039 12.9567 34.8506 13.294C35.0119 13.6167 35.3052 13.778 35.7306 13.778C36.0239 13.778 36.2732 13.7487 36.4786 13.69C36.6986 13.6313 36.9406 13.5433 37.2046 13.426L37.7106 15.626C37.3146 15.8167 36.8526 15.978 36.3246 16.11C35.7966 16.242 35.2612 16.308 34.7186 16.308C33.7066 16.308 32.9586 16.0513 32.4746 15.538C32.0052 15.01 31.7706 14.152 31.7706 12.964V7.42H30.2526V5ZM48.8785 16H39.1325V0.599999H42.1465V13.316H48.8785V16ZM50.6093 5H53.4693V16H50.6093V5ZM50.1913 1.898C50.1913 1.47267 50.3453 1.11333 50.6533 0.819999C50.9759 0.511999 51.4159 0.357999 51.9733 0.357999C52.5306 0.357999 52.9779 0.511999 53.3153 0.819999C53.6673 1.11333 53.8433 1.47267 53.8433 1.898C53.8433 2.32333 53.6673 2.68267 53.3153 2.976C52.9779 3.25467 52.5306 3.394 51.9733 3.394C51.4159 3.394 50.9759 3.25467 50.6533 2.976C50.3453 2.68267 50.1913 2.32333 50.1913 1.898ZM60.8295 12.964C60.8295 12.6707 60.7048 12.436 60.4555 12.26C60.2062 12.084 59.8982 11.9227 59.5315 11.776C59.1648 11.6293 58.7615 11.4827 58.3215 11.336C57.8815 11.1747 57.4782 10.962 57.1115 10.698C56.7448 10.4193 56.4368 10.0747 56.1875 9.664C55.9382 9.23867 55.8135 8.696 55.8135 8.036C55.8135 6.95067 56.1362 6.122 56.7815 5.55C57.4268 4.978 58.3582 4.692 59.5755 4.692C60.4115 4.692 61.1668 4.78 61.8415 4.956C62.5162 5.132 63.0442 5.33 63.4255 5.55L62.7875 7.618C62.4502 7.486 62.0248 7.34667 61.5115 7.2C60.9982 7.05333 60.4775 6.98 59.9495 6.98C59.0988 6.98 58.6735 7.31 58.6735 7.97C58.6735 8.234 58.7982 8.44667 59.0475 8.608C59.2968 8.76933 59.6048 8.92333 59.9715 9.07C60.3382 9.202 60.7415 9.34867 61.1815 9.51C61.6215 9.67133 62.0248 9.884 62.3915 10.148C62.7582 10.3973 63.0662 10.7273 63.3155 11.138C63.5648 11.5487 63.6895 12.0767 63.6895 12.722C63.6895 13.8367 63.3302 14.7167 62.6115 15.362C61.9075 15.9927 60.8442 16.308 59.4215 16.308C58.6442 16.308 57.9108 16.2053 57.2215 16C56.5468 15.8093 55.9968 15.582 55.5715 15.318L56.3635 13.184C56.7008 13.3747 57.1482 13.5653 57.7055 13.756C58.2628 13.932 58.8348 14.02 59.4215 14.02C59.8468 14.02 60.1842 13.9393 60.4335 13.778C60.6975 13.6167 60.8295 13.3453 60.8295 12.964ZM64.4127 5H65.9307V2.932L68.7907 2.118V5H71.4747V7.42H68.7907V11.644C68.7907 12.4067 68.8641 12.9567 69.0107 13.294C69.1721 13.6167 69.4654 13.778 69.8907 13.778C70.1841 13.778 70.4334 13.7487 70.6387 13.69C70.8587 13.6313 71.1007 13.5433 71.3647 13.426L71.8707 15.626C71.4747 15.8167 71.0127 15.978 70.4847 16.11C69.9567 16.242 69.4214 16.308 68.8787 16.308C67.8667 16.308 67.1187 16.0513 66.6347 15.538C66.1654 15.01 65.9307 14.152 65.9307 12.964V7.42H64.4127V5Z" fill="#59606D"/>
</svg>
