<svg width="55" height="12" viewBox="0 0 55 12" fill="none" xmlns="http://www.w3.org/2000/svg">
<path fill-rule="evenodd" clip-rule="evenodd" d="M2.7887 0H4.80756L4.42296 1.6518H2.40398L2.7887 0ZM0 11.9033H2.01933L4.13534 2.76948H2.16305L0 11.9033ZM18.7024 0H6.97119L6.53828 1.6518L11.3944 1.60302L8.99064 11.9033H11.0096L13.4138 1.60302H18.2692L18.7024 0ZM43.3171 0L40.5289 11.9033H42.5478L45.3365 0H43.3171ZM51.1058 2.6724H48.798L44.1345 7.53027L47.6917 11.9501H49.9997L46.4902 7.53027L51.1058 2.6724ZM54.9999 2.6724H52.6439L48.0284 7.53027L51.5385 11.9501H53.8937L50.3362 7.53027L54.9999 2.6724ZM30.8652 4.85866C30.3848 7.14104 30.1922 7.6758 30.1922 7.6758L29.1833 11.9033H27.2593L25.9135 11.8543L23.0287 11.8052C23.0287 11.8052 21.635 11.4171 21.5861 9.81391C21.5384 8.25918 22.5481 6.65712 23.4617 6.26643C23.8464 6.07277 24.8558 6.024 25.9135 6.024H26.0578C27.3081 6.024 28.5091 6.07276 28.5091 6.07276C28.5091 6.07276 28.9423 5.00468 28.7494 4.56713C28.6537 4.42049 27.2593 4.42049 25.9135 4.42049C24.6155 4.42049 23.3652 4.46958 23.3179 4.42049L23.7498 2.76948H29.5671C29.5671 2.76948 31.2978 2.62379 30.8652 4.85866ZM28.1726 7.6758H27.9806C27.9806 7.72441 26.8752 7.6758 25.9135 7.6758C25.4328 7.6758 25.0478 7.6758 24.7115 7.72442C23.7026 7.82244 23.173 10.1538 23.9901 10.2519C24.3748 10.2994 25.1925 10.2994 25.9135 10.2994H27.5483L28.1726 7.6758ZM33.7505 3.6922C32.5479 4.66404 32.3558 6.12234 31.9712 7.48165C31.5865 8.89039 31.3945 10.0568 31.8269 10.8823C32.3558 11.8543 33.3178 12.0002 34.0381 12.0002L38.3652 11.9501L38.7493 10.2994L35.3843 10.2519C34.8556 10.2519 33.99 10.2994 33.7505 9.61945C33.7505 9.47377 33.7979 8.50242 34.0872 7.434C34.2309 6.94721 34.5672 5.87879 34.8077 5.49035C35.1443 4.90728 35.6727 4.37299 36.7788 4.37299H40.048L40.4809 2.76948L36.6827 2.72007C35.625 2.72007 34.6638 2.91549 33.7505 3.6922ZM22.1634 2.76948L20.625 2.72007C20.0957 2.72007 19.519 2.76948 18.9905 2.96394C18.895 3.01383 18.7505 3.06086 18.5096 3.20766C18.2209 3.30377 17.9811 3.49887 17.7404 3.6922C17.2114 4.12976 16.8756 4.66404 16.6347 5.24646C16.2499 6.36495 15.8654 7.72441 15.5767 9.03607L14.904 12.0002H16.9234L17.3078 10.202L17.8364 8.21137C17.8845 7.96813 17.9324 7.72442 18.0291 7.434C18.1728 6.99551 18.4617 5.87879 18.7024 5.49035C19.038 4.90728 19.6155 4.42049 20.7215 4.42049H21.827L22.1634 2.76948Z" fill="#233AEF"/>
</svg>
