<svg width="299" height="52" viewBox="0 0 299 52" fill="none" xmlns="http://www.w3.org/2000/svg">
<path d="M4.5 9.5L7 8L21.5 21C26.8333 14.8333 40.5 2.5 52.5 2.5C64.5 2.5 76.5 15.8333 81 22.5L97 11L98.5 14.5L97 24C98 26.3333 99.9 31.5 99.5 33.5C99.1 35.5 97.6667 39.6667 97 41.5L94.5 43L86.5 37.5L81 30C74.6667 36.3333 59.5 49 49.5 49C39.5 49 27.3333 37.3333 22.5 31.5L18.5 31L17.5 32.5L4.5 43L4 41.5V30L2 22L5.5 15.5L4.5 9.5Z" fill="white"/>
<path d="M100.094 27.1184C99.3544 26.2394 98.6916 25.2994 98.1126 24.3086C100.902 20.1415 101.788 15.5854 98.2777 11.0811C98.0691 10.2771 98.6426 8.53937 97.1567 8.73822L95.2538 9.19642C90.0401 12.8189 86.938 15.6978 85.2349 18.0925C84.5459 19.0058 84.0117 20.025 83.6534 21.1098C87.0684 19.96 91.3088 17.2712 95.9141 13.5624C97.7997 15.8966 97.5217 19.5104 95.7404 24.0925C95.6897 24.2162 95.6864 24.3541 95.7313 24.48C95.7762 24.606 95.866 24.7111 95.9837 24.7754C98.521 27.9829 99.4594 30.7408 98.2255 33.5419C96.7657 36.7753 95.7056 40.5793 96.5398 42.5677C96.6007 42.6988 96.7013 42.8076 96.8275 42.879C96.9538 42.9503 97.0993 42.9805 97.2436 42.9654C97.5043 42.9135 97.3392 42.7579 97.3827 42.7406C97.2784 41.34 98.3472 38.4179 99.5811 36.5505L99.9721 36.0318C99.9721 35.9799 100.024 35.9367 100.059 35.9107C100.089 35.8744 100.112 35.8335 100.129 35.7897C101.901 33.1442 101.84 30.1961 100.094 27.1184Z" fill="#04259B"/>
<path d="M80.1512 19.8816C64.38 -5.76063 38.3901 -7.13525 22.2452 18.8874C21.776 19.3975 21.3328 19.4926 20.8636 19.0949C19.3193 16.88 17.4234 14.9296 15.2503 13.3198C12.6878 11.5324 10.4315 9.34589 8.56813 6.84437C8.38967 6.80428 8.20484 6.80103 8.02507 6.83481C7.84529 6.8686 7.67439 6.9387 7.52291 7.04079C7.37144 7.14288 7.24262 7.27479 7.14441 7.42837C7.0462 7.58195 6.98068 7.75393 6.95191 7.93369C7.95628 9.85633 9.45555 11.4793 11.2966 12.6368C14.3987 14.5734 17.3792 17.971 20.2553 22.0257C20.8636 22.8211 21.4979 23.0804 22.1062 22.8902C24.2049 19.6383 26.5552 16.554 29.1359 13.6656C30.7177 12.1038 32.4659 10.7181 34.3495 9.53309L34.4625 9.68871C35.5756 11.2588 36.9511 12.6273 38.5291 13.7348C38.5127 13.7715 38.4923 13.8063 38.4683 13.8385C36.6809 17.1917 35.5543 20.8539 35.1489 24.628H35.0186C30.2047 25.3196 28.6927 24.9133 24.1047 25.2937C23.5486 25.4579 23.314 25.6395 23.2358 25.821C22.6797 26.2447 23.6268 26.6856 24.4349 26.919C27.6934 27.7836 29.7268 27.7835 34.4364 28.3974C34.641 28.411 34.8444 28.4399 35.0447 28.4838C35.3391 32.8321 36.6674 37.0486 38.9201 40.7862C38.9693 40.8909 39.0306 40.9895 39.1026 41.0802C38.503 41.573 37.9208 42.1176 37.3647 42.7055C37.3742 42.7009 37.3846 42.6986 37.3951 42.6986C37.4057 42.6986 37.4161 42.7009 37.4255 42.7055C37.375 42.7504 37.3284 42.7995 37.2865 42.8525C33.8466 41.0024 30.6895 38.6735 27.9107 35.9362C27.3577 35.4628 26.8568 34.9324 26.4161 34.3541C20.8549 25.6914 14.9983 18.1526 8.00332 12.2391L4.07573 9.36883L3.91063 9.58497L3.78029 14.5042C-0.112552 20.3485 -2.09373 24.8787 3.31106 31.5184C1.84256 35.3223 1.94683 39.1004 3.71946 44.0196C3.5283 46.1205 4.05835 46.7948 5.27486 46.1896C11.3574 42.6537 11.7224 37.1725 18.1264 33.0227C18.3778 32.8091 18.5947 32.5583 18.7695 32.2792C19.5254 31.2763 19.8296 29.7634 18.7695 29.5213C15.4675 28.7691 12.1134 31.2504 8.38566 32.6423C8.45517 32.6423 8.516 32.6423 8.57682 32.7114C8.4635 32.7662 8.3475 32.8152 8.22925 32.8584C10.4277 34.0947 13.2083 31.9852 15.6413 32.2792C12.7043 34.4146 9.64562 36.6019 7.72526 39.4635C7.72526 39.5067 7.67313 39.524 7.66444 39.5586C7.64712 39.6061 7.61707 39.6479 7.57754 39.6796C7.27342 40.1292 7.08225 40.5442 6.83895 40.9246C6.717 41.1125 6.54971 41.267 6.35234 41.3741C4.02359 38.4866 4.69267 34.6307 5.87443 31.2676C6.12726 30.8273 6.27729 30.3361 6.31339 29.8302C6.34949 29.3244 6.27074 28.8169 6.08297 28.3455C3.1981 24.9997 2.96349 23.9018 3.47616 22.4234C4.45735 21.5289 5.33201 20.5252 6.08297 19.4321C6.90644 18.2648 7.55888 16.9869 8.0207 15.6368C13.0161 20.3421 17.3663 25.6819 20.9592 31.5184C35.4009 55.0252 61.3387 60.152 81.107 31.9506C84.8174 36.6537 85.556 37.4145 88.0585 39.0572C88.2758 39.1263 88.4148 39.0572 88.2236 38.8237C85.9644 35.6249 83.7833 32.4002 81.7413 29.0717C81.1939 28.1467 81.0723 27.8614 80.4553 28.2072C80.4049 28.2687 80.3613 28.3353 80.325 28.406C79.569 29.6855 78.7783 30.8959 77.9702 32.0457C74.6671 36.8023 70.2816 40.7154 65.1707 43.4663C64.4669 42.7315 63.763 42.0744 63.0331 41.4347C63.0597 41.4055 63.083 41.3737 63.1026 41.3396C63.1587 41.2786 63.2082 41.2119 63.2504 41.1407C65.4766 37.3412 66.8436 33.1046 67.2562 28.7259H67.317C71.514 27.9824 74.0947 27.8614 76.0672 27.5328C76.4864 27.3805 76.8837 27.1742 77.2489 26.919C77.2091 26.8919 77.1651 26.8715 77.1186 26.8585L77.3967 26.6769C76.8666 26.5213 76.6754 26.236 76.1367 26.2014C74.1555 25.9161 70.4799 25.8556 67.317 25.6136C67.1304 21.557 66.135 17.5779 64.3887 13.9077C64.3957 13.8705 64.3957 13.8324 64.3887 13.7953C65.607 12.9384 66.721 11.9432 67.708 10.8299C67.7688 10.7694 67.8297 10.6829 67.8905 10.6138C72.2967 13.6361 76.0907 17.4578 79.0737 21.8787C84.2004 29.7806 89.2663 37.38 95.0274 43.7084L95.2359 39.6623C91.9166 38.6508 86.4075 30.5328 80.1512 19.8816ZM36.8434 8.02879C38.9887 6.9246 41.2703 6.10495 43.6298 5.59079C42.1983 6.98125 41.0065 8.59643 40.1019 10.3717C38.8831 9.79184 37.7792 8.99819 36.8434 8.02879ZM38.7116 43.6219C39.2156 43.2848 39.6935 42.9562 40.1714 42.6709C41.1377 43.772 42.2726 44.7144 43.5342 45.4634C41.8827 44.9701 40.2707 44.3546 38.7116 43.6219ZM43.3343 42.4116C43.0611 42.0606 42.8086 41.6939 42.5783 41.3136C44.3795 40.3555 46.3205 39.6846 48.3307 39.3252H48.5219L48.9042 45.4807C47.8176 45.3624 46.7654 45.0301 45.8092 44.5032C44.8529 43.9763 44.0116 43.2653 43.3343 42.4116ZM48.9216 23.3398V23.8326C45.8468 23.7448 42.7694 23.817 39.7022 24.0487L39.2242 24.1006V23.5473C39.3771 20.6749 39.9208 17.8364 40.8405 15.1094C43.3576 16.4201 46.1094 17.225 48.939 17.4782H49.0693L48.9216 23.3398ZM58.2192 7.89047C59.0722 8.92735 59.7502 10.0953 60.2265 11.3486C57.9065 12.2764 55.4433 12.7999 52.9448 12.8962L52.8231 5.53027C54.8313 5.71449 56.7251 6.54279 58.2192 7.89047ZM53.8745 30.0227C56.7768 30.0227 59.6356 29.9535 62.4944 29.8671V30.2907C62.3862 33.4454 61.7 36.554 60.4698 39.4635C58.3254 37.9675 55.8889 36.9366 53.3184 36.4376L53.3619 35.9189L53.8745 30.0314V30.0227ZM63.1895 44.4087C61.1944 45.2661 59.1068 45.8927 56.9679 46.2761C58.738 45.6383 60.3311 44.5924 61.6168 43.2243C62.1813 43.5632 62.7084 43.9601 63.1895 44.4087ZM62.3901 10.1642C61.6863 8.98843 60.8695 7.83859 60.0353 6.70605C61.5284 7.22639 62.9806 7.85636 64.38 8.59074C63.7728 9.18189 63.106 9.70917 62.3901 10.1642Z" fill="#04259B"/>
<path d="M58.8818 41.7887C57.124 40.6007 55.1134 39.8342 53.0077 39.5496L52.469 45.463C52.5399 45.5059 52.6187 45.5342 52.7009 45.5461C52.783 45.5579 52.8667 45.5532 52.9469 45.5322H53.1033C53.4161 45.4803 53.7203 45.4457 53.9723 45.3679C54.0937 45.3396 54.2128 45.302 54.3285 45.2555C54.4788 45.2215 54.6268 45.1782 54.7717 45.1258C56.4835 44.5114 57.9334 43.3341 58.8818 41.7887Z" fill="#8FBDE6"/>
<path d="M44.1884 8.26985C43.4399 9.30754 42.7662 10.3967 42.1725 11.5292C44.6049 12.3769 47.1427 12.8889 49.7149 13.0508V12.6444L50.0277 5.51196C48.2024 5.57046 46.442 6.19966 44.9965 7.31021C44.8041 7.46387 44.6318 7.64106 44.4839 7.83758C44.4057 7.98455 44.3188 8.14017 44.1884 8.26985Z" fill="#EF4135"/>
<path d="M38.8355 29.261C38.7855 32.7412 39.6162 36.178 41.2512 39.2551C43.3301 37.9835 45.5966 37.0441 47.968 36.4713L48.2895 30.0218C45.0745 29.8229 42.0071 29.5895 38.8355 29.261Z" fill="#EF4135"/>
<path d="M53.3121 17.7545H52.9037L53.0688 24.0138C53.0784 24.0304 53.0924 24.044 53.1092 24.0531C53.1261 24.0623 53.1452 24.0666 53.1644 24.0657C56.4403 24.472 59.5771 24.9302 62.7227 25.1723L62.7661 24.8005C62.8969 22.8336 62.7536 20.8582 62.3403 18.9303C62.1318 17.841 61.8451 16.7776 61.5322 15.7056C58.9087 16.7881 56.1387 17.4786 53.3121 17.7545Z" fill="#8FBDE6"/>
<path d="M117.639 28.7635H120.121L117.924 32.4357L120.121 36.1H117.639L115.116 32.4357L117.639 28.7635ZM113.53 28.7635H116.005L113.808 32.4357L116.005 36.1H113.53L111 32.4357L113.53 28.7635Z" fill="#04259B"/>
<path d="M130.011 31.9122L133.16 32.864C132.949 33.747 132.616 34.4846 132.161 35.0768C131.706 35.669 131.14 36.1158 130.464 36.4172C129.792 36.7186 128.935 36.8693 127.894 36.8693C126.63 36.8693 125.596 36.6869 124.793 36.3221C123.994 35.9519 123.304 35.3042 122.723 34.3789C122.141 33.4535 121.85 32.2691 121.85 30.8256C121.85 28.901 122.36 27.4231 123.381 26.392C124.407 25.3556 125.855 24.8375 127.727 24.8375C129.192 24.8375 130.342 25.1336 131.177 25.7258C132.018 26.318 132.642 27.2274 133.049 28.4542L129.877 29.16C129.766 28.8058 129.649 28.5467 129.528 28.3828C129.327 28.1078 129.081 27.8963 128.79 27.7483C128.499 27.6002 128.174 27.5262 127.814 27.5262C127 27.5262 126.376 27.854 125.943 28.5097C125.615 28.9961 125.451 29.7602 125.451 30.8018C125.451 32.092 125.647 32.9777 126.038 33.4588C126.429 33.9347 126.979 34.1727 127.688 34.1727C128.375 34.1727 128.893 33.9797 129.242 33.5937C129.596 33.2077 129.853 32.6472 130.011 31.9122Z" fill="#04259B"/>
<path d="M145.597 36.6631H142.004V27.891H139.196V31.4681C139.196 32.938 139.117 34.0193 138.958 34.712C138.805 35.3994 138.44 35.9043 137.863 36.2269C137.292 36.5494 136.367 36.7107 135.087 36.7107C134.696 36.7107 134.247 36.6684 133.739 36.5838V34.2282H134.278C134.765 34.2282 135.109 34.1224 135.31 33.9109C135.51 33.6941 135.611 33.3002 135.611 32.7292V25.0358H145.597V36.6631Z" fill="#04259B"/>
<path d="M155.138 34.7437H151.045L150.482 36.6631H146.81L151.18 25.0358H155.098L159.468 36.6631H155.709L155.138 34.7437ZM154.384 32.2295L153.1 28.0497L151.823 32.2295H154.384Z" fill="#04259B"/>
<path d="M172.825 39.1932H169.93V36.6631H162.506V39.1932H159.619V33.9823H160.817C161.488 32.1052 161.824 29.9876 161.824 27.6293V25.0358H171.572V33.9823H172.825V39.1932ZM167.979 33.9823V27.891H165.092V28.0417C165.092 29.6491 164.819 31.6293 164.275 33.9823H167.979Z" fill="#04259B"/>
<path d="M184.809 36.6631H180.764L179.368 33.6571C179.035 32.9486 178.776 32.5071 178.591 32.3326C178.406 32.1528 178.149 32.0629 177.822 32.0629V36.6631H174.237V25.0358H177.822V29.5011C178.134 29.4852 178.377 29.3742 178.551 29.168C178.726 28.9618 178.998 28.3696 179.368 27.3914C179.638 26.667 179.91 26.1488 180.185 25.8368C180.46 25.5196 180.907 25.2922 181.525 25.1547C182.144 25.0172 183.114 24.9485 184.436 24.9485V27.4072H184.254C183.641 27.4072 183.186 27.5235 182.89 27.7562C182.594 27.9889 182.35 28.3669 182.16 28.8904C181.97 29.4086 181.763 29.7972 181.541 30.0563C181.325 30.3101 181.026 30.5137 180.645 30.667C181.163 30.8362 181.615 31.1297 182.001 31.5474C182.387 31.9598 182.797 32.6049 183.231 33.4826L184.809 36.6631Z" fill="#04259B"/>
<path d="M193.256 34.7437H189.163L188.6 36.6631H184.928L189.298 25.0358H193.216L197.586 36.6631H193.827L193.256 34.7437ZM192.502 32.2295L191.218 28.0497L189.941 32.2295H192.502Z" fill="#04259B"/>
<path d="M209.023 36.6631V25.0358H203.035C201.925 25.0358 201.076 25.1309 200.489 25.3213C199.902 25.5116 199.429 25.8659 199.07 26.3841C198.71 26.897 198.53 27.5235 198.53 28.2638C198.53 28.9089 198.668 29.4667 198.943 29.9373C199.218 30.4026 199.596 30.7807 200.077 31.0715C200.384 31.2566 200.804 31.4099 201.338 31.5315C200.91 31.6743 200.598 31.817 200.402 31.9598C200.27 32.055 200.077 32.2586 199.823 32.5705C199.575 32.8825 199.408 33.1231 199.323 33.2923L197.586 36.6631H201.647L203.567 33.1099C203.81 32.6498 204.027 32.3511 204.217 32.2136C204.476 32.0338 204.77 31.9439 205.097 31.9439H205.415V36.6631H209.023ZM205.415 29.747H203.9C203.736 29.747 203.419 29.6941 202.948 29.5883C202.71 29.5408 202.514 29.4191 202.361 29.2235C202.213 29.0279 202.139 28.8031 202.139 28.5493C202.139 28.1739 202.258 27.8857 202.496 27.6848C202.734 27.4839 203.181 27.3834 203.836 27.3834H205.415V29.747Z" fill="#04259B"/>
<path d="M224.585 31.9122L227.733 32.864C227.522 33.747 227.189 34.4846 226.734 35.0768C226.279 35.669 225.714 36.1158 225.037 36.4172C224.365 36.7186 223.509 36.8693 222.467 36.8693C221.203 36.8693 220.17 36.6869 219.366 36.3221C218.567 35.9519 217.877 35.3042 217.296 34.3789C216.714 33.4535 216.423 32.2691 216.423 30.8256C216.423 28.901 216.934 27.4231 217.954 26.392C218.98 25.3556 220.429 24.8375 222.3 24.8375C223.765 24.8375 224.915 25.1336 225.751 25.7258C226.591 26.318 227.215 27.2274 227.622 28.4542L224.45 29.16C224.339 28.8058 224.223 28.5467 224.101 28.3828C223.9 28.1078 223.654 27.8963 223.363 27.7483C223.072 27.6002 222.747 27.5262 222.388 27.5262C221.573 27.5262 220.95 27.854 220.516 28.5097C220.188 28.9961 220.024 29.7602 220.024 30.8018C220.024 32.092 220.22 32.9777 220.611 33.4588C221.002 33.9347 221.552 34.1727 222.261 34.1727C222.948 34.1727 223.466 33.9797 223.815 33.5937C224.17 33.2077 224.426 32.6472 224.585 31.9122Z" fill="#04259B"/>
<path d="M240.059 36.6631H236.014L234.618 33.6571C234.285 32.9486 234.026 32.5071 233.841 32.3326C233.656 32.1528 233.399 32.0629 233.071 32.0629V36.6631H229.486V25.0358H233.071V29.5011C233.383 29.4852 233.626 29.3742 233.801 29.168C233.975 28.9618 234.248 28.3696 234.618 27.3914C234.888 26.667 235.16 26.1488 235.435 25.8368C235.71 25.5196 236.157 25.2922 236.775 25.1547C237.394 25.0172 238.364 24.9485 239.686 24.9485V27.4072H239.504C238.89 27.4072 238.435 27.5235 238.139 27.7562C237.843 27.9889 237.6 28.3669 237.41 28.8904C237.219 29.4086 237.013 29.7972 236.791 30.0563C236.574 30.3101 236.276 30.5137 235.895 30.667C236.413 30.8362 236.865 31.1297 237.251 31.5474C237.637 31.9598 238.047 32.6049 238.48 33.4826L240.059 36.6631Z" fill="#04259B"/>
<path d="M248.506 34.7437H244.413L243.85 36.6631H240.178L244.548 25.0358H248.466L252.836 36.6631H249.077L248.506 34.7437ZM247.752 32.2295L246.467 28.0497L245.19 32.2295H247.752Z" fill="#04259B"/>
<path d="M261.283 30.3418C262.679 30.7172 263.377 31.595 263.377 32.975C263.377 34.1118 262.938 35.0451 262.06 35.7748C261.188 36.4992 259.953 36.8614 258.356 36.8614C255.628 36.8614 253.933 35.7166 253.272 33.4271L256.667 33.1733C256.857 33.9823 257.399 34.3868 258.293 34.3868C258.79 34.3868 259.165 34.2625 259.419 34.014C259.678 33.7655 259.808 33.4192 259.808 32.975C259.808 32.5467 259.647 32.2004 259.324 31.936C259.001 31.6664 258.56 31.5315 257.999 31.5315H257.024V29.4535H257.793C258.253 29.4535 258.613 29.3345 258.872 29.0966C259.136 28.8534 259.268 28.5176 259.268 28.0893C259.268 27.4601 258.875 27.1455 258.087 27.1455C257.272 27.1455 256.799 27.5077 256.667 28.2321L253.455 27.8593C253.978 25.8447 255.543 24.8375 258.15 24.8375C259.594 24.8375 260.725 25.1177 261.545 25.6782C262.364 26.2387 262.774 26.9921 262.774 27.9386C262.774 29.0807 262.277 29.8818 261.283 30.3418Z" fill="#04259B"/>
<path d="M275.75 36.6631H271.705L270.309 33.6571C269.976 32.9486 269.717 32.5071 269.532 32.3326C269.347 32.1528 269.09 32.0629 268.762 32.0629V36.6631H265.177V25.0358H268.762V29.5011C269.074 29.4852 269.317 29.3742 269.492 29.168C269.666 28.9618 269.939 28.3696 270.309 27.3914C270.579 26.667 270.851 26.1488 271.126 25.8368C271.401 25.5196 271.848 25.2922 272.466 25.1547C273.085 25.0172 274.055 24.9485 275.377 24.9485V27.4072H275.195C274.581 27.4072 274.127 27.5235 273.83 27.7562C273.534 27.9889 273.291 28.3669 273.101 28.8904C272.91 29.4086 272.704 29.7972 272.482 30.0563C272.265 30.3101 271.967 30.5137 271.586 30.667C272.104 30.8362 272.556 31.1297 272.942 31.5474C273.328 31.9598 273.738 32.6049 274.171 33.4826L275.75 36.6631Z" fill="#04259B"/>
<path d="M284.197 34.7437H280.104L279.541 36.6631H275.869L280.239 25.0358H284.157L288.527 36.6631H284.768L284.197 34.7437ZM283.443 32.2295L282.158 28.0497L280.881 32.2295H283.443Z" fill="#04259B"/>
<path d="M291.938 28.7635H289.455L291.652 32.4357L289.455 36.1H291.938L294.46 32.4357L291.938 28.7635ZM296.046 28.7635H293.572L295.769 32.4357L293.572 36.1H296.046L298.576 32.4357L296.046 28.7635Z" fill="#04259B"/>
<path d="M164.497 14.051H167.909V15.1313H165.834V19.1049H164.497V14.051Z" fill="#04259B"/>
<path d="M168.575 14.051H169.822V14.7934C169.984 14.5396 170.203 14.3334 170.479 14.1748C170.755 14.0161 171.061 13.9368 171.397 13.9368C171.984 13.9368 172.482 14.1668 172.891 14.6269C173.301 15.0869 173.505 15.7277 173.505 16.5494C173.505 17.3933 173.299 18.05 172.887 18.5196C172.474 18.9859 171.975 19.2191 171.388 19.2191C171.108 19.2191 170.855 19.1636 170.626 19.0525C170.401 18.9415 170.163 18.7512 169.912 18.4815V21.0275H168.575V14.051ZM169.898 16.4923C169.898 17.0602 170.011 17.4806 170.236 17.7534C170.461 18.0231 170.736 18.1579 171.059 18.1579C171.37 18.1579 171.629 18.0342 171.835 17.7867C172.041 17.5361 172.144 17.1268 172.144 16.5589C172.144 16.0291 172.038 15.6357 171.825 15.3788C171.613 15.1218 171.35 14.9933 171.035 14.9933C170.709 14.9933 170.437 15.1202 170.222 15.374C170.006 15.6246 169.898 15.9974 169.898 16.4923Z" fill="#04259B"/>
<path d="M173.805 14.051H175.228L176.437 17.6392L177.617 14.051H179.002L177.217 18.9145L176.898 19.7949C176.781 20.09 176.668 20.3152 176.56 20.4707C176.456 20.6261 176.334 20.7514 176.194 20.8466C176.058 20.945 175.888 21.0211 175.685 21.075C175.485 21.129 175.258 21.1559 175.004 21.1559C174.747 21.1559 174.495 21.129 174.248 21.075L174.129 20.0281C174.338 20.0693 174.527 20.09 174.695 20.09C175.006 20.09 175.236 19.998 175.385 19.814C175.534 19.6331 175.648 19.4015 175.728 19.1192L173.805 14.051Z" fill="#04259B"/>
<path d="M179.811 14.051H184.298V19.1049H182.961V15.1313H181.148V19.1049H179.811V14.051Z" fill="#04259B"/>
<path d="M185.702 14.051H190.19V19.1049H188.852V15.1313H187.039V19.1049H185.702V14.051Z" fill="#04259B"/>
<path d="M192.645 15.5929L191.432 15.374C191.568 14.8854 191.803 14.5238 192.136 14.289C192.469 14.0542 192.964 13.9368 193.621 13.9368C194.217 13.9368 194.661 14.0082 194.953 14.151C195.245 14.2906 195.45 14.4698 195.567 14.6887C195.688 14.9045 195.748 15.3026 195.748 15.8832L195.734 17.4441C195.734 17.8882 195.754 18.2166 195.796 18.4291C195.84 18.6385 195.921 18.8638 196.038 19.1049H194.715C194.68 19.0161 194.638 18.8844 194.587 18.7099C194.565 18.6306 194.549 18.5783 194.539 18.5529C194.311 18.775 194.067 18.9415 193.806 19.0525C193.546 19.1636 193.269 19.2191 192.974 19.2191C192.453 19.2191 192.042 19.0779 191.741 18.7956C191.443 18.5132 191.294 18.1563 191.294 17.7248C191.294 17.4393 191.362 17.1855 191.498 16.9634C191.635 16.7382 191.825 16.5669 192.069 16.4495C192.317 16.3289 192.672 16.2242 193.135 16.1354C193.76 16.018 194.193 15.9086 194.435 15.807V15.6738C194.435 15.4168 194.371 15.2344 194.244 15.1265C194.117 15.0155 193.878 14.96 193.526 14.96C193.288 14.96 193.102 15.0076 192.969 15.1027C192.836 15.1947 192.728 15.3581 192.645 15.5929ZM194.435 16.6779C194.263 16.735 193.992 16.8032 193.621 16.8825C193.25 16.9618 193.007 17.0396 192.893 17.1157C192.718 17.2394 192.631 17.3965 192.631 17.5868C192.631 17.774 192.701 17.9358 192.84 18.0722C192.98 18.2087 193.158 18.2769 193.373 18.2769C193.614 18.2769 193.844 18.1975 194.063 18.0389C194.225 17.9184 194.331 17.7708 194.382 17.5964C194.417 17.4821 194.435 17.2648 194.435 16.9444V16.6779Z" fill="#04259B"/>
<path d="M199.731 14.051H201.064V16.1164C201.286 16.091 201.443 16.0228 201.535 15.9117C201.627 15.8007 201.738 15.558 201.868 15.1836C202.039 14.6856 202.226 14.3667 202.429 14.2271C202.632 14.0875 202.899 14.0177 203.229 14.0177C203.33 14.0177 203.506 14.0257 203.757 14.0415L203.762 14.9267C203.41 14.9267 203.184 14.96 203.086 15.0266C202.988 15.0964 202.881 15.3042 202.767 15.65C202.612 16.1164 202.388 16.4035 202.096 16.5113C202.518 16.6287 202.875 16.9952 203.167 17.6106C203.183 17.6424 203.2 17.6757 203.219 17.7106L203.966 19.1049H202.529L201.863 17.6439C201.727 17.3489 201.608 17.1601 201.506 17.0776C201.408 16.992 201.26 16.9492 201.064 16.9492V19.1049H199.731V14.051Z" fill="#04259B"/>
<path d="M204.223 16.5066C204.223 16.0624 204.333 15.6326 204.552 15.217C204.771 14.8013 205.08 14.4841 205.48 14.2652C205.883 14.0463 206.332 13.9368 206.826 13.9368C207.591 13.9368 208.218 14.1859 208.706 14.684C209.195 15.1789 209.439 15.8055 209.439 16.5637C209.439 17.3283 209.192 17.9628 208.697 18.4672C208.205 18.9685 207.585 19.2191 206.836 19.2191C206.373 19.2191 205.93 19.1144 205.508 18.905C205.089 18.6956 204.771 18.3895 204.552 17.9866C204.333 17.5805 204.223 17.0872 204.223 16.5066ZM205.594 16.578C205.594 17.0792 205.713 17.4631 205.951 17.7296C206.189 17.9961 206.482 18.1293 206.831 18.1293C207.18 18.1293 207.472 17.9961 207.707 17.7296C207.945 17.4631 208.064 17.0761 208.064 16.5685C208.064 16.0735 207.945 15.6928 207.707 15.4263C207.472 15.1598 207.18 15.0266 206.831 15.0266C206.482 15.0266 206.189 15.1598 205.951 15.4263C205.713 15.6928 205.594 16.0767 205.594 16.578Z" fill="#04259B"/>
<path d="M210.396 14.051H212.052L213.308 17.5726L214.574 14.051H216.225V19.1049H215.088V15.7785L213.855 19.1049H212.713L211.538 15.7785V19.1049H210.396V14.051Z" fill="#04259B"/>
<path d="M217.519 14.051H222.007V19.1049H220.67V15.1313H218.857V19.1049H217.519V14.051Z" fill="#04259B"/>
<path d="M224.463 15.5929L223.249 15.374C223.386 14.8854 223.62 14.5238 223.953 14.289C224.287 14.0542 224.781 13.9368 225.438 13.9368C226.035 13.9368 226.479 14.0082 226.771 14.151C227.062 14.2906 227.267 14.4698 227.384 14.6887C227.505 14.9045 227.565 15.3026 227.565 15.8832L227.551 17.4441C227.551 17.8882 227.572 18.2166 227.613 18.4291C227.657 18.6385 227.738 18.8638 227.856 19.1049H226.533C226.498 19.0161 226.455 18.8844 226.404 18.7099C226.382 18.6306 226.366 18.5783 226.357 18.5529C226.128 18.775 225.884 18.9415 225.624 19.0525C225.364 19.1636 225.086 19.2191 224.791 19.2191C224.271 19.2191 223.86 19.0779 223.558 18.7956C223.26 18.5132 223.111 18.1563 223.111 17.7248C223.111 17.4393 223.179 17.1855 223.316 16.9634C223.452 16.7382 223.642 16.5669 223.887 16.4495C224.134 16.3289 224.49 16.2242 224.953 16.1354C225.578 16.018 226.011 15.9086 226.252 15.807V15.6738C226.252 15.4168 226.188 15.2344 226.062 15.1265C225.935 15.0155 225.695 14.96 225.343 14.96C225.105 14.96 224.919 15.0076 224.786 15.1027C224.653 15.1947 224.545 15.3581 224.463 15.5929ZM226.252 16.6779C226.081 16.735 225.809 16.8032 225.438 16.8825C225.067 16.9618 224.824 17.0396 224.71 17.1157C224.536 17.2394 224.448 17.3965 224.448 17.5868C224.448 17.774 224.518 17.9358 224.658 18.0722C224.797 18.2087 224.975 18.2769 225.191 18.2769C225.432 18.2769 225.662 18.1975 225.881 18.0389C226.043 17.9184 226.149 17.7708 226.2 17.5964C226.234 17.4821 226.252 17.2648 226.252 16.9444V16.6779Z" fill="#04259B"/>
<path d="M228.836 14.051H230.173V15.9022H232.086V14.051H233.428V19.1049H232.086V16.9825H230.173V19.1049H228.836V14.051Z" fill="#04259B"/>
<path d="M234.746 14.051H236.031V17.2252L238.087 14.051H239.4V19.1049H238.116V15.8737L236.031 19.1049H234.746V14.051Z" fill="#04259B"/>
<path d="M240.742 14.051H242.027V17.2252L244.083 14.051H245.397V19.1049H244.112V15.8737L242.027 19.1049H240.742V14.051ZM243.945 12H244.597C244.559 12.4315 244.407 12.7709 244.14 13.0184C243.877 13.2627 243.534 13.3848 243.112 13.3848C242.69 13.3848 242.346 13.2627 242.08 13.0184C241.816 12.7709 241.666 12.4315 241.628 12H242.28C242.302 12.2253 242.381 12.3966 242.517 12.514C242.654 12.6282 242.852 12.6853 243.112 12.6853C243.372 12.6853 243.571 12.6282 243.707 12.514C243.844 12.3966 243.923 12.2253 243.945 12Z" fill="#04259B"/>
</svg>
