<svg width="24" height="24" viewBox="0 0 24 24" fill="none" xmlns="http://www.w3.org/2000/svg">
<circle cx="12" cy="12" r="12" fill="#6190AB"/>
<path d="M13.0625 19H10.2305V8.43359H13.0625V19ZM10.0645 5.69922C10.0645 5.27604 10.2044 4.92773 10.4844 4.6543C10.7708 4.38086 11.1582 4.24414 11.6465 4.24414C12.1283 4.24414 12.5124 4.38086 12.7988 4.6543C13.0853 4.92773 13.2285 5.27604 13.2285 5.69922C13.2285 6.12891 13.082 6.48047 12.7891 6.75391C12.5026 7.02734 12.1217 7.16406 11.6465 7.16406C11.1712 7.16406 10.7871 7.02734 10.4941 6.75391C10.2077 6.48047 10.0645 6.12891 10.0645 5.69922Z" fill="white"/>
</svg>
