<svg width="22" height="23" viewBox="0 0 22 23" fill="none" xmlns="http://www.w3.org/2000/svg">
<g clip-path="url(#clip0)">
<path d="M16.4463 0.0046815L13.5934 0C10.3883 0 8.31703 2.17339 8.31703 5.53728V8.09034H5.44859C5.20072 8.09034 5 8.29585 5 8.54936V12.2484C5 12.502 5.20095 12.7072 5.44859 12.7072H8.31703V22.0412C8.31703 22.2947 8.51775 22.5 8.76561 22.5H12.5081C12.756 22.5 12.9567 22.2945 12.9567 22.0412V12.7072H16.3106C16.5584 12.7072 16.7592 12.502 16.7592 12.2484L16.7605 8.54936C16.7605 8.42764 16.7132 8.31107 16.6292 8.22493C16.5452 8.13879 16.4307 8.09034 16.3117 8.09034H12.9567V5.92608C12.9567 4.88585 13.1991 4.35778 14.524 4.35778L16.4458 4.35707C16.6935 4.35707 16.8942 4.15156 16.8942 3.89829V0.463469C16.8942 0.210434 16.6937 0.00514965 16.4463 0.0046815Z" fill="#233AEF"/>
</g>
<defs>
<clipPath id="clip0">
<rect width="22" height="22.5" fill="white"/>
</clipPath>
</defs>
</svg>
