<svg width="24" height="24" viewBox="0 0 24 24" fill="none" xmlns="http://www.w3.org/2000/svg">
<path fill-rule="evenodd" clip-rule="evenodd" d="M10 3C6.13401 3 3 6.13401 3 10C3 13.866 6.13401 17 10 17C13.866 17 17 13.866 17 10C17 6.13401 13.866 3 10 3ZM0 10C0 4.47715 4.47715 0 10 0C15.5228 0 20 4.47715 20 10C20 15.5228 15.5228 20 10 20C4.47715 20 0 15.5228 0 10Z" fill="#04259B"/>
<path fill-rule="evenodd" clip-rule="evenodd" d="M16.9941 15.5314L22.651 21.1882C23.2758 21.8131 23.2758 22.8261 22.651 23.451C22.0261 24.0758 21.0131 24.0758 20.3882 23.451L14.7314 17.7941C14.1065 17.1693 14.1065 16.1562 14.7314 15.5314C15.3562 14.9065 16.3693 14.9065 16.9941 15.5314Z" fill="#04259B"/>
</svg>
