<svg width="22" height="23" viewBox="0 0 22 23" fill="none" xmlns="http://www.w3.org/2000/svg">
<path fill-rule="evenodd" clip-rule="evenodd" d="M18.9341 12.6912C19.6639 13.4037 20.4341 14.074 21.0887 14.8584C21.3778 15.2069 21.6515 15.5666 21.8609 15.9711C22.1577 16.5461 21.8889 17.1789 21.3733 17.2132L18.1683 17.2117C17.3417 17.2803 16.6822 16.9475 16.1278 16.3824C15.684 15.9304 15.2731 15.4493 14.8464 14.9821C14.6715 14.7911 14.4884 14.6114 14.2697 14.4694C13.8321 14.1854 13.4523 14.2724 13.2023 14.7287C12.9477 15.1928 12.8899 15.7067 12.8649 16.224C12.8306 16.9787 12.6024 17.1771 11.8443 17.2117C10.2242 17.2881 8.6866 17.043 7.25822 16.2257C5.99891 15.5051 5.02236 14.488 4.17239 13.3364C2.51748 11.0942 1.25014 8.63025 0.111107 6.09732C-0.14528 5.52664 0.0422219 5.22031 0.671878 5.20947C1.71745 5.18916 2.76288 5.1906 3.80968 5.20802C4.23463 5.21424 4.51595 5.45797 4.68003 5.85943C5.24572 7.25037 5.9379 8.57373 6.80674 9.80037C7.03812 10.1269 7.27405 10.4535 7.61002 10.6834C7.9817 10.9379 8.26468 10.8535 8.43954 10.4395C8.55049 10.177 8.59906 9.89419 8.62407 9.61301C8.70691 8.64565 8.71782 7.67995 8.57254 6.71599C8.48334 6.11438 8.14448 5.72492 7.54417 5.61107C7.23783 5.55303 7.28344 5.43904 7.43177 5.26419C7.68938 4.96262 7.93168 4.7749 8.41467 4.7749H12.0368C12.6071 4.88745 12.7337 5.14362 12.8118 5.7174L12.8149 9.74088C12.8087 9.963 12.9258 10.6221 13.3259 10.7692C13.6461 10.8738 13.8572 10.6177 14.0493 10.4146C14.9166 9.49418 15.5355 8.40639 16.0885 7.28001C16.3339 6.78473 16.5449 6.27036 16.7494 5.75643C16.9009 5.37507 17.1386 5.18742 17.5682 5.19573L21.0543 5.19884C21.1577 5.19884 21.2623 5.20036 21.3624 5.21749C21.9498 5.3176 22.1108 5.5703 21.9294 6.14394C21.6435 7.04393 21.0873 7.79394 20.5434 8.54742C19.9621 9.35185 19.3403 10.1287 18.7638 10.938C18.2341 11.6769 18.2761 12.0494 18.9341 12.6912Z" fill="#233AEF"/>
</svg>
